<svg width="64" height="64" viewBox="0 0 64 64" fill="none" xmlns="http://www.w3.org/2000/svg">
<rect width="64" height="64" rx="32" fill="#7B01F7"/>
<path d="M30.1719 19.2734C30.1719 16.3657 27.8062 14 24.8984 14H19.2734C16.3657 14 14 16.3657 14 19.2734C14 22.1812 16.3657 24.5469 19.2734 24.5469H24.8984C27.8062 24.5469 30.1719 22.1812 30.1719 19.2734ZM16.8125 19.2734C16.8125 17.9165 17.9165 16.8125 19.2734 16.8125H24.8984C26.2554 16.8125 27.3594 17.9165 27.3594 19.2734C27.3594 20.6304 26.2554 21.7344 24.8984 21.7344H19.2734C17.9165 21.7344 16.8125 20.6304 16.8125 19.2734ZM44.7266 39.4531H39.1016C36.1938 39.4531 33.8281 41.8188 33.8281 44.7266C33.8281 47.6343 36.1938 50 39.1016 50H44.7266C47.6343 50 50 47.6343 50 44.7266C50 41.8188 47.6343 39.4531 44.7266 39.4531ZM44.7266 47.1875H39.1016C37.7446 47.1875 36.6406 46.0835 36.6406 44.7266C36.6406 43.3696 37.7446 42.2656 39.1016 42.2656H44.7266C46.0835 42.2656 47.1875 43.3696 47.1875 44.7266C47.1875 46.0835 46.0835 47.1875 44.7266 47.1875ZM31.3672 44.7266C31.3672 45.5032 30.7376 46.1328 29.9609 46.1328H25.6719C22.958 46.1328 20.75 43.9249 20.75 41.2109V28.7656C20.75 27.989 21.3796 27.3594 22.1562 27.3594C22.9329 27.3594 23.5625 27.989 23.5625 28.7656V30.0312H29.6094C30.386 30.0312 31.0156 30.6608 31.0156 31.4375C31.0156 32.2142 30.386 32.8438 29.6094 32.8438H23.5625V41.2109C23.5625 42.374 24.5088 43.3203 25.6719 43.3203H29.9609C30.7376 43.3203 31.3672 43.9499 31.3672 44.7266ZM39.1016 36.6406H44.7266C47.6343 36.6406 50 34.275 50 31.3672C50 28.4594 47.6343 26.0938 44.7266 26.0938H39.1016C36.1938 26.0938 33.8281 28.4594 33.8281 31.3672C33.8281 34.275 36.1938 36.6406 39.1016 36.6406ZM39.1016 28.9062H44.7266C46.0835 28.9062 47.1875 30.0102 47.1875 31.3672C47.1875 32.7241 46.0835 33.8281 44.7266 33.8281H39.1016C37.7446 33.8281 36.6406 32.7241 36.6406 31.3672C36.6406 30.0102 37.7446 28.9062 39.1016 28.9062Z" fill="white"/>
</svg>
