<svg width="64" height="64" viewBox="0 0 64 64" fill="none" xmlns="http://www.w3.org/2000/svg">
<rect width="64" height="64" rx="32" fill="#7B01F7"/>
<path d="M29.2578 50H22.4375C17.7851 50 14 46.2149 14 41.5625V22.4375C14 17.7851 17.7851 14 22.4375 14H35.375C40.0274 14 43.8125 17.7851 43.8125 22.4375V27.0078C43.8125 27.7845 43.1829 28.4141 42.4062 28.4141C41.6296 28.4141 41 27.7845 41 27.0078V22.4375C41 19.3359 38.4766 16.8125 35.375 16.8125H22.4375C19.3359 16.8125 16.8125 19.3359 16.8125 22.4375V41.5625C16.8125 44.6641 19.3359 47.1875 22.4375 47.1875H29.2578C30.0345 47.1875 30.6641 47.8171 30.6641 48.5938C30.6641 49.3704 30.0345 50 29.2578 50ZM36.5 20.8906C36.5 20.114 35.8704 19.4844 35.0938 19.4844C34.3171 19.4844 33.6875 20.114 33.6875 20.8906C33.6875 22.0537 32.7412 23 31.5781 23H26.2344C25.0713 23 24.125 22.0537 24.125 20.8906C24.125 20.114 23.4954 19.4844 22.7188 19.4844C21.9421 19.4844 21.3125 20.114 21.3125 20.8906C21.3125 23.6045 23.5205 25.8125 26.2344 25.8125H31.5781C34.292 25.8125 36.5 23.6045 36.5 20.8906ZM50 40.5078C50 35.2738 45.7418 31.0156 40.5078 31.0156C35.2738 31.0156 31.0156 35.2738 31.0156 40.5078C31.0156 45.7418 35.2738 50 40.5078 50C45.7418 50 50 45.7418 50 40.5078ZM47.1875 40.5078C47.1875 44.191 44.191 47.1875 40.5078 47.1875C36.8246 47.1875 33.8281 44.191 33.8281 40.5078C33.8281 36.8246 36.8246 33.8281 40.5078 33.8281C44.191 33.8281 47.1875 36.8246 47.1875 40.5078ZM44.3038 40.5078C44.3038 39.7311 43.6742 39.1016 42.8975 39.1016H41.9141V37.625C41.9141 36.8483 41.2845 36.2188 40.5078 36.2188C39.7311 36.2188 39.1016 36.8483 39.1016 37.625V40.5078C39.1016 41.2845 39.7311 41.9141 40.5078 41.9141H42.8975C43.6742 41.9141 44.3038 41.2845 44.3038 40.5078Z" fill="white"/>
</svg>
