<svg width="64" height="64" viewBox="0 0 64 64" fill="none" xmlns="http://www.w3.org/2000/svg">
<rect width="64" height="64" rx="32" fill="#7B01F7"/>
<path d="M48.5938 50C47.8171 50 47.1875 49.3704 47.1875 48.5938C47.1875 45.8023 44.9315 43.5312 42.1584 43.5312H40.9667C38.1935 43.5312 35.9375 45.8023 35.9375 48.5938C35.9375 49.3704 35.3079 50 34.5312 50C33.7546 50 33.125 49.3704 33.125 48.5938C33.125 44.2515 36.6427 40.7188 40.9666 40.7188H42.1583C46.4823 40.7188 50 44.2515 50 48.5938C50 49.3704 49.3704 50 48.5938 50ZM47.4688 32.6328C47.4688 29.3373 44.7877 26.6562 41.4922 26.6562C38.1967 26.6562 35.5156 29.3373 35.5156 32.6328C35.5156 35.9283 38.1967 38.6094 41.4922 38.6094C44.7877 38.6094 47.4688 35.9283 47.4688 32.6328ZM44.6562 32.6328C44.6562 34.3775 43.2369 35.7969 41.4922 35.7969C39.7475 35.7969 38.3281 34.3775 38.3281 32.6328C38.3281 30.8881 39.7475 29.4688 41.4922 29.4688C43.2369 29.4688 44.6562 30.8881 44.6562 32.6328ZM30.3125 48.5938C30.3125 47.8171 29.6829 47.1875 28.9062 47.1875H22.436C19.3352 47.1875 16.8125 44.6648 16.8125 41.564V22.436C16.8125 19.3352 19.3352 16.8125 22.436 16.8125H35.3779C38.4787 16.8125 41.0014 19.3352 41.0014 22.436C41.0014 23.2127 41.631 23.8423 42.4077 23.8423C43.1843 23.8423 43.8139 23.2127 43.8139 22.436C43.814 17.7844 40.0295 14 35.3765 14H22.436C17.7844 14 14 17.7844 14 22.436V41.5639C14 46.2156 17.7844 50 22.436 50H28.9062C29.6829 50 30.3125 49.3704 30.3125 48.5938V48.5938ZM32.6328 29.9609C32.6328 29.1843 32.0032 28.5547 31.2266 28.5547H23.6328C22.8561 28.5547 22.2266 29.1843 22.2266 29.9609C22.2266 30.7376 22.8561 31.3672 23.6328 31.3672H31.2266C32.0032 31.3672 32.6328 30.7376 32.6328 29.9609ZM35.4453 24.5469C35.4453 23.7702 34.8157 23.1406 34.0391 23.1406H23.6328C22.8561 23.1406 22.2266 23.7702 22.2266 24.5469C22.2266 25.3235 22.8561 25.9531 23.6328 25.9531H34.0391C34.8157 25.9531 35.4453 25.3235 35.4453 24.5469ZM32.6328 40.7188C32.6328 39.9421 32.0032 39.3125 31.2266 39.3125H23.6328C22.8561 39.3125 22.2266 39.9421 22.2266 40.7188C22.2266 41.4954 22.8561 42.125 23.6328 42.125H31.2266C32.0032 42.125 32.6328 41.4954 32.6328 40.7188ZM32.6328 35.3047C32.6328 34.528 32.0032 33.8984 31.2266 33.8984H23.6328C22.8561 33.8984 22.2266 34.528 22.2266 35.3047C22.2266 36.0814 22.8561 36.7109 23.6328 36.7109H31.2266C32.0032 36.7109 32.6328 36.0814 32.6328 35.3047Z" fill="white"/>
</svg>
