<svg width="64" height="64" viewBox="0 0 64 64" fill="none" xmlns="http://www.w3.org/2000/svg">
<rect width="64" height="64" rx="32" fill="#7B01F7"/>
<path d="M27.3594 32.7734V37.9062C27.3594 38.2359 27.2556 38.5405 27.0444 38.7932C26.956 38.9075 24.8581 41.683 24.8268 46.8293C24.8162 48.5776 23.3808 50 21.6271 50H19.7323C17.9786 50 16.5432 48.5776 16.5326 46.8293C16.5013 41.683 14.4034 38.9075 14.3149 38.7932C14.1038 38.5405 14 38.2359 14 37.9062V31.975C14 28.5382 16.796 25.7422 20.2328 25.7422H32.2812C33.0579 25.7422 33.6875 26.3718 33.6875 27.1484C33.6875 27.9251 33.0579 28.5547 32.2812 28.5547H20.2328C18.3469 28.5547 16.8125 30.089 16.8125 31.975V37.4561C17.5526 38.5663 19.3141 41.7381 19.345 46.8122C19.3463 47.0121 19.5272 47.1875 19.7323 47.1875H21.6271C21.8322 47.1875 22.0132 47.0121 22.0144 46.8121C22.0452 41.7381 23.8068 38.5663 24.5469 37.4561V32.7734C24.5469 31.9968 25.1765 31.3672 25.9531 31.3672C26.7298 31.3672 27.3594 31.9968 27.3594 32.7734V32.7734ZM15.8281 18.7812C15.8281 16.1449 17.973 14 20.6094 14C23.2457 14 25.3906 16.1449 25.3906 18.7812C25.3906 21.4176 23.2457 23.5625 20.6094 23.5625C17.973 23.5625 15.8281 21.4176 15.8281 18.7812ZM18.6406 18.7812C18.6406 19.8668 19.5238 20.75 20.6094 20.75C21.6949 20.75 22.5781 19.8668 22.5781 18.7812C22.5781 17.6957 21.6949 16.8125 20.6094 16.8125C19.5238 16.8125 18.6406 17.6957 18.6406 18.7812ZM41.5625 14H39.3125C37.2059 14 35.1887 14.7807 33.6324 16.1982C32.0869 17.6059 31.1224 19.5227 30.9166 21.5954C30.8398 22.3683 31.4042 23.057 32.177 23.1337C32.9499 23.2102 33.6386 22.6461 33.7153 21.8733C34.0018 18.9882 36.408 16.8125 39.3125 16.8125H41.5625C44.6641 16.8125 47.1875 19.3359 47.1875 22.4375V33.8281C47.1875 36.9297 44.6641 39.4531 41.5625 39.4531H39.3125C36.2109 39.4531 33.6875 36.9297 33.6875 33.8281V32.7734C33.6875 31.9968 33.0579 31.3672 32.2812 31.3672C31.5046 31.3672 30.875 31.9968 30.875 32.7734V33.8281C30.875 38.4806 34.6601 42.2656 39.3125 42.2656H41.5625C46.2149 42.2656 50 38.4806 50 33.8281V22.4375C50 17.7851 46.2149 14 41.5625 14ZM46.7656 47.1875H41.7734V45.7812C41.7734 45.0046 41.1439 44.375 40.3672 44.375C39.5905 44.375 38.9609 45.0046 38.9609 45.7812V47.1875H34.1797C33.403 47.1875 32.7734 47.8171 32.7734 48.5938C32.7734 49.3704 33.403 50 34.1797 50H46.7656C47.5423 50 48.1719 49.3704 48.1719 48.5938C48.1719 47.8171 47.5423 47.1875 46.7656 47.1875ZM37.5547 31.3672H40.5078C41.2845 31.3672 41.9141 30.7376 41.9141 29.9609C41.9141 29.1843 41.2845 28.5547 40.5078 28.5547H37.5547C36.778 28.5547 36.1484 29.1843 36.1484 29.9609C36.1484 30.7376 36.778 31.3672 37.5547 31.3672ZM37.5547 25.7422H43.3203C44.097 25.7422 44.7266 25.1126 44.7266 24.3359C44.7266 23.5593 44.097 22.9297 43.3203 22.9297H37.5547C36.778 22.9297 36.1484 23.5593 36.1484 24.3359C36.1484 25.1126 36.778 25.7422 37.5547 25.7422Z" fill="white"/>
</svg>
