<svg width="156" height="84" viewBox="0 0 156 84" fill="none" xmlns="http://www.w3.org/2000/svg">
<path fill-rule="evenodd" clip-rule="evenodd" d="M33 62C44.0457 62 53 53.0457 53 42C53 30.9543 44.0457 22 33 22C21.9543 22 13 30.9543 13 42C13 53.0457 21.9543 62 33 62ZM39.2393 31.3168C39.543 30.238 38.4961 29.6001 37.54 30.2813L24.1931 39.7896C23.1562 40.5283 23.3193 42 24.4381 42H27.9527V41.9728H34.8025L29.2212 43.9421L26.7607 52.6832C26.457 53.762 27.5038 54.3999 28.46 53.7187L41.8069 44.2105C42.8438 43.4718 42.6806 42 41.5619 42H36.2321L39.2393 31.3168Z" fill="#252436"/>
<path d="M73.5324 51.182C72.1977 51.182 71.0017 50.9653 69.9444 50.532C68.8871 50.0987 68.0377 49.4573 67.3964 48.608C66.7724 47.7587 66.4431 46.736 66.4084 45.54H71.1404C71.2097 46.216 71.4437 46.736 71.8424 47.1C72.2411 47.4467 72.7611 47.62 73.4024 47.62C74.0611 47.62 74.5811 47.4727 74.9624 47.178C75.3437 46.866 75.5344 46.4413 75.5344 45.904C75.5344 45.4533 75.3784 45.0807 75.0664 44.786C74.7717 44.4913 74.3991 44.2487 73.9484 44.058C73.5151 43.8673 72.8911 43.6507 72.0764 43.408C70.8977 43.044 69.9357 42.68 69.1904 42.316C68.4451 41.952 67.8037 41.4147 67.2664 40.704C66.7291 39.9933 66.4604 39.066 66.4604 37.922C66.4604 36.2233 67.0757 34.8973 68.3064 33.944C69.5371 32.9733 71.1404 32.488 73.1164 32.488C75.1271 32.488 76.7477 32.9733 77.9784 33.944C79.2091 34.8973 79.8677 36.232 79.9544 37.948H75.1444C75.1097 37.3587 74.8931 36.8993 74.4944 36.57C74.0957 36.2233 73.5844 36.05 72.9604 36.05C72.4231 36.05 71.9897 36.1973 71.6604 36.492C71.3311 36.7693 71.1664 37.1767 71.1664 37.714C71.1664 38.3033 71.4437 38.7627 71.9984 39.092C72.5531 39.4213 73.4197 39.7767 74.5984 40.158C75.7771 40.5567 76.7304 40.938 77.4584 41.302C78.2037 41.666 78.8451 42.1947 79.3824 42.888C79.9197 43.5813 80.1884 44.474 80.1884 45.566C80.1884 46.606 79.9197 47.5507 79.3824 48.4C78.8624 49.2493 78.0997 49.9253 77.0944 50.428C76.0891 50.9307 74.9017 51.182 73.5324 51.182ZM90.7905 51L86.3705 44.916V51H81.9245V31.76H86.3705V42.394L90.7645 36.492L96.2505 36.492L90.2185 43.772L96.3025 51H90.7905ZM99.2328 34.984C98.4528 34.984 97.8114 34.7587 97.3088 34.308C96.8234 33.84 96.5808 33.268 96.5808 32.592C96.5808 31.8987 96.8234 31.3267 97.3088 30.876C97.8114 30.408 98.4528 30.174 99.2328 30.174C99.9954 30.174 100.619 30.408 101.105 30.876C101.607 31.3267 101.859 31.8987 101.859 32.592C101.859 33.268 101.607 33.84 101.105 34.308C100.619 34.7587 99.9954 34.984 99.2328 34.984ZM101.443 36.492V51H96.9968V36.492H101.443ZM108.111 31.76V51L103.665 51V31.76H108.111ZM114.779 31.76V51H110.333V31.76H114.779ZM130.677 43.512C130.677 43.928 130.651 44.3613 130.599 44.812H120.537C120.606 45.7133 120.892 46.4067 121.395 46.892C121.915 47.36 122.547 47.594 123.293 47.594C124.402 47.594 125.173 47.126 125.607 46.19L130.339 46.19C130.096 47.1433 129.654 48.0013 129.013 48.764C128.389 49.5267 127.6 50.1247 126.647 50.558C125.693 50.9913 124.627 51.208 123.449 51.208C122.027 51.208 120.762 50.9047 119.653 50.298C118.543 49.6913 117.677 48.8247 117.053 47.698C116.429 46.5713 116.117 45.254 116.117 43.746C116.117 42.238 116.42 40.9207 117.027 39.794C117.651 38.6673 118.517 37.8007 119.627 37.194C120.736 36.5873 122.01 36.284 123.449 36.284C124.853 36.284 126.101 36.5787 127.193 37.168C128.285 37.7573 129.134 38.598 129.741 39.69C130.365 40.782 130.677 42.056 130.677 43.512ZM126.127 42.342C126.127 41.5793 125.867 40.9727 125.347 40.522C124.827 40.0713 124.177 39.846 123.397 39.846C122.651 39.846 122.019 40.0627 121.499 40.496C120.996 40.9293 120.684 41.5447 120.563 42.342H126.127ZM136.468 38.91C136.988 38.1127 137.638 37.4887 138.418 37.038C139.198 36.57 140.065 36.336 141.018 36.336V41.042H139.796C138.687 41.042 137.855 41.2847 137.3 41.77C136.745 42.238 136.468 43.07 136.468 44.266V51H132.022V36.492H136.468V38.91Z" fill="#252436"/>
</svg>
