<svg width="156" height="84" viewBox="0 0 156 84" fill="none" xmlns="http://www.w3.org/2000/svg">
<path d="M39.1191 21.9609L78.8121 59.4046V21.9609H68.0705V33.7826L55.5386 21.9609L39.1191 21.9609Z" fill="#252436"/>
<path d="M7 21.9609V59.5032H17.7416V47.6815L30.2733 59.5032H46.7975L7 21.9609Z" fill="#252436"/>
<path d="M108.779 23.3083L103.213 39H98.4291L92.8633 23.3083H96.9315L100.821 35.1553L104.733 23.3083L108.779 23.3083ZM111.6 25.2306C110.929 25.2306 110.378 25.0369 109.946 24.6495C109.529 24.2471 109.32 23.7554 109.32 23.1742C109.32 22.5781 109.529 22.0863 109.946 21.6989C110.378 21.2965 110.929 21.0954 111.6 21.0954C112.256 21.0954 112.792 21.2965 113.209 21.6989C113.641 22.0863 113.858 22.5781 113.858 23.1742C113.858 23.7554 113.641 24.2471 113.209 24.6495C112.792 25.0369 112.256 25.2306 111.6 25.2306ZM113.5 26.5271V39H109.678V26.5271H113.5ZM121.182 35.4235L123.887 26.5271L127.955 26.5271L123.529 39H118.813L114.387 26.5271H118.477L121.182 35.4235ZM130.788 25.2306C130.117 25.2306 129.566 25.0369 129.133 24.6495C128.716 24.2471 128.508 23.7554 128.508 23.1742C128.508 22.5781 128.716 22.0863 129.133 21.6989C129.566 21.2965 130.117 21.0954 130.788 21.0954C131.443 21.0954 131.98 21.2965 132.397 21.6989C132.829 22.0863 133.045 22.5781 133.045 23.1742C133.045 23.7554 132.829 24.2471 132.397 24.6495C131.98 25.0369 131.443 25.2306 130.788 25.2306ZM132.688 26.5271V39H128.865V26.5271H132.688ZM95.948 47.2306C95.2774 47.2306 94.726 47.0369 94.2939 46.6495C93.8766 46.2471 93.668 45.7554 93.668 45.1742C93.668 44.5781 93.8766 44.0863 94.2939 43.6989C94.726 43.2965 95.2774 43.0954 95.948 43.0954C96.6037 43.0954 97.1401 43.2965 97.5574 43.6989C97.9895 44.0863 98.2056 44.5781 98.2056 45.1742C98.2056 45.7554 97.9895 46.2471 97.5574 46.6495C97.1401 47.0369 96.6037 47.2306 95.948 47.2306ZM97.8703 62.6094C97.8703 64.1443 97.4829 65.247 96.708 65.9176C95.9331 66.6031 94.8527 66.9459 93.4668 66.9459H91.9692V63.7047H92.8856C93.3029 63.7047 93.6009 63.6227 93.7798 63.4588C93.9586 63.2949 94.048 63.0267 94.048 62.6541L94.048 48.5271H97.8703V62.6094ZM105.598 61.1788C104.376 61.1788 103.273 60.918 102.289 60.3965C101.321 59.8749 100.553 59.1298 99.987 58.1612C99.4357 57.1926 99.16 56.06 99.16 54.7636C99.16 53.482 99.4431 52.3569 100.009 51.3883C100.576 50.4047 101.351 49.6522 102.334 49.1306C103.318 48.6091 104.42 48.3483 105.642 48.3483C106.864 48.3483 107.967 48.6091 108.951 49.1306C109.934 49.6522 110.709 50.4047 111.275 51.3883C111.841 52.3569 112.125 53.482 112.125 54.7636C112.125 56.0451 111.834 57.1777 111.253 58.1612C110.687 59.1298 109.904 59.8749 108.906 60.3965C107.922 60.918 106.82 61.1788 105.598 61.1788ZM105.598 57.8706C106.328 57.8706 106.946 57.6024 107.453 57.0659C107.974 56.5294 108.235 55.762 108.235 54.7636C108.235 53.7651 107.982 52.9977 107.475 52.4612C106.983 51.9247 106.372 51.6565 105.642 51.6565C104.897 51.6565 104.279 51.9247 103.787 52.4612C103.295 52.9828 103.049 53.7502 103.049 54.7636C103.049 55.762 103.288 56.5294 103.765 57.0659C104.256 57.6024 104.867 57.8706 105.598 57.8706ZM117.276 50.293C117.634 49.7118 118.148 49.2424 118.819 48.8848C119.489 48.5271 120.257 48.3483 121.121 48.3483C122.149 48.3483 123.081 48.6091 123.915 49.1306C124.75 49.6522 125.405 50.3973 125.882 51.3659C126.374 52.3345 126.62 53.4596 126.62 54.7412C126.62 56.0228 126.374 57.1553 125.882 58.1388C125.405 59.1075 124.75 59.86 123.915 60.3965C123.081 60.918 122.149 61.1788 121.121 61.1788C120.242 61.1788 119.474 61.0075 118.819 60.6647C118.163 60.3071 117.649 59.8377 117.276 59.2565V61L113.454 61V44.4589H117.276V50.293ZM122.73 54.7412C122.73 53.7875 122.462 53.0424 121.926 52.5059C121.404 51.9545 120.756 51.6789 119.981 51.6789C119.221 51.6789 118.573 51.9545 118.036 52.5059C117.515 53.0573 117.254 53.8098 117.254 54.7636C117.254 55.7173 117.515 56.4698 118.036 57.0212C118.573 57.5726 119.221 57.8482 119.981 57.8482C120.741 57.8482 121.389 57.5726 121.926 57.0212C122.462 56.4549 122.73 55.6949 122.73 54.7412ZM133.001 61.1788C131.913 61.1788 130.944 60.9925 130.095 60.62C129.245 60.2475 128.575 59.7408 128.083 59.1C127.591 58.4443 127.316 57.7141 127.256 56.9094H131.034C131.078 57.3416 131.279 57.6918 131.637 57.96C131.995 58.2282 132.434 58.3624 132.956 58.3624C133.433 58.3624 133.798 58.273 134.051 58.0941C134.319 57.9004 134.454 57.6545 134.454 57.3565C134.454 56.9988 134.267 56.7381 133.895 56.5741C133.522 56.3953 132.919 56.2016 132.084 55.993C131.19 55.7843 130.445 55.5683 129.849 55.3447C129.253 55.1063 128.739 54.7412 128.307 54.2494C127.874 53.7428 127.658 53.0647 127.658 52.2153C127.658 51.5 127.852 50.8518 128.239 50.2706C128.642 49.6746 129.223 49.2051 129.983 48.8624C130.758 48.5197 131.674 48.3483 132.732 48.3483C134.297 48.3483 135.526 48.7357 136.421 49.5106C137.33 50.2855 137.851 51.3138 137.985 52.5953H134.454C134.394 52.1632 134.2 51.8204 133.872 51.5671C133.559 51.3138 133.142 51.1871 132.621 51.1871C132.174 51.1871 131.831 51.2765 131.592 51.4553C131.354 51.6193 131.235 51.8502 131.235 52.1483C131.235 52.5059 131.421 52.7742 131.794 52.953C132.181 53.1318 132.777 53.3106 133.582 53.4894C134.506 53.7279 135.258 53.9663 135.839 54.2047C136.421 54.4283 136.927 54.8008 137.359 55.3224C137.806 55.829 138.037 56.5145 138.052 57.3788C138.052 58.109 137.844 58.7647 137.426 59.3459C137.024 59.9122 136.436 60.3592 135.661 60.6871C134.901 61.0149 134.014 61.1788 133.001 61.1788Z" fill="#252436"/>
<path fill-rule="evenodd" clip-rule="evenodd" d="M53.753 59.5H70.375L30.5811 21.9609H13.959L53.753 59.5Z" fill="#252436"/>
</svg>
