<svg width="156" height="84" viewBox="0 0 156 84" fill="none" xmlns="http://www.w3.org/2000/svg">
<path d="M132.785 38.21L119.223 28.8554C117.849 27.9075 118.316 25.9337 120.03 25.4696L134.443 21.5577C134.748 21.4475 135.076 21.4118 135.398 21.4534C135.719 21.495 136.027 21.6128 136.294 21.797C136.561 21.9811 136.781 22.2264 136.934 22.5124C137.088 22.7984 137.171 23.1169 137.177 23.4414L136.322 36.7072C136.221 38.2818 134.159 39.1579 132.785 38.21Z" fill="#252436"/>
<path opacity="0.4" d="M128.482 40.5197L120.493 24.8955C120.31 24.5381 120.23 24.1371 120.26 23.7369C120.291 23.3367 120.432 22.9528 120.667 22.6274C120.902 22.3021 121.222 22.048 121.593 21.8932C121.963 21.7384 122.369 21.6889 122.766 21.7501L137.572 24.0353C137.913 24.0879 138.236 24.2207 138.516 24.4227C138.796 24.6247 139.023 24.8902 139.18 25.1973C139.337 25.5045 139.419 25.8445 139.419 26.1894C139.419 26.5343 139.337 26.8743 139.18 27.1814L132.359 40.5204C132.176 40.8768 131.898 41.1759 131.556 41.3846C131.214 41.5934 130.821 41.7037 130.42 41.7037C130.02 41.7036 129.627 41.5931 129.285 41.3842C128.943 41.1753 128.665 40.8762 128.482 40.5197Z" fill="#252436"/>
<path opacity="0.5" d="M137.138 23.9683L129.757 22.8291L120.695 25.2896L124.312 32.3658L132.783 38.2106C132.969 38.3382 133.175 38.4358 133.392 38.5002L136.609 32.2086L137.138 23.9683Z" fill="#252436"/>
<path d="M36.7305 20.0189V37H32.5941V26.8162L28.7963 37H25.4581L21.6362 26.792L21.6362 37H17.4998L17.4998 20.0189H22.3861L27.1514 31.775L31.8684 20.0189H36.7305ZM45.0933 37.1935C43.771 37.1935 42.5776 36.9113 41.5133 36.3469C40.465 35.7825 39.6345 34.9761 39.0217 33.9279C38.425 32.8797 38.1267 31.6541 38.1267 30.2511C38.1267 28.8642 38.4331 27.6467 39.0459 26.5985C39.6587 25.5341 40.4973 24.7197 41.5616 24.1553C42.626 23.5909 43.8193 23.3087 45.1417 23.3087C46.4641 23.3087 47.6574 23.5909 48.7218 24.1553C49.7861 24.7197 50.6247 25.5341 51.2375 26.5985C51.8503 27.6467 52.1567 28.8642 52.1567 30.2511C52.1567 31.638 51.8422 32.8636 51.2133 33.9279C50.6005 34.9761 49.7539 35.7825 48.6734 36.3469C47.609 36.9113 46.4157 37.1935 45.0933 37.1935ZM45.0933 33.6135C45.8835 33.6135 46.5528 33.3232 47.1011 32.7426C47.6655 32.1621 47.9477 31.3316 47.9477 30.2511C47.9477 29.1706 47.6736 28.3401 47.1253 27.7596C46.5931 27.179 45.9319 26.8887 45.1417 26.8887C44.3354 26.8887 43.6661 27.179 43.134 27.7596C42.6018 28.324 42.3357 29.1545 42.3357 30.2511C42.3357 31.3316 42.5937 32.1621 43.1098 32.7426C43.6419 33.3232 44.3031 33.6135 45.0933 33.6135ZM61.8197 23.357C63.4001 23.357 64.6579 23.8731 65.5933 24.9052C66.5447 25.9211 67.0205 27.3241 67.0205 29.1142V37H62.9082V29.6705C62.9082 28.7675 62.6744 28.066 62.2067 27.566C61.7391 27.0661 61.1101 26.8162 60.3199 26.8162C59.5297 26.8162 58.9008 27.0661 58.4332 27.566C57.9655 28.066 57.7317 28.7675 57.7317 29.6705V37H53.5952V23.5022H57.7317V25.2922C58.1509 24.6955 58.7154 24.2279 59.4249 23.8892C60.1345 23.5344 60.9327 23.357 61.8197 23.357ZM77.3876 37L73.2754 31.3396V37L69.139 37V19.0997L73.2754 19.0997V28.9932L77.3634 23.5022H82.4674L76.8554 30.2753L82.5158 37H77.3876ZM96.0599 30.0334C96.0599 30.4204 96.0357 30.8236 95.9874 31.2429L86.626 31.2429C86.6905 32.0814 86.9566 32.7265 87.4242 33.178C87.908 33.6135 88.4966 33.8312 89.1901 33.8312C90.2222 33.8312 90.9398 33.3957 91.343 32.5249H95.7455C95.5197 33.4119 95.1085 34.2101 94.5118 34.9197C93.9313 35.6293 93.1975 36.1856 92.3105 36.5888C91.4236 36.9919 90.4318 37.1935 89.3352 37.1935C88.0129 37.1935 86.8356 36.9113 85.8035 36.3469C84.7714 35.7825 83.9651 34.9761 83.3846 33.9279C82.804 32.8797 82.5137 31.6541 82.5137 30.2511C82.5137 28.8481 82.796 27.6225 83.3604 26.5743C83.9409 25.5261 84.7473 24.7197 85.7793 24.1553C86.8114 23.5909 87.9967 23.3087 89.3352 23.3087C90.6415 23.3087 91.8026 23.5828 92.8185 24.1311C93.8345 24.6794 94.6247 25.4615 95.1891 26.4775C95.7697 27.4935 96.0599 28.6788 96.0599 30.0334ZM91.8268 28.9449C91.8268 28.2353 91.5849 27.6709 91.1011 27.2516C90.6173 26.8323 90.0125 26.6226 89.2868 26.6226C88.5934 26.6226 88.0048 26.8242 87.521 27.2274C87.0533 27.6305 86.7631 28.203 86.6502 28.9449L91.8268 28.9449ZM111.274 23.5022L102.808 43.4103H98.357L101.453 36.5404L95.9622 23.5022H100.582L103.703 31.9444L106.799 23.5022H111.274Z" fill="#252436"/>
<path d="M75.9345 64.057C74.8217 64.057 73.838 63.8635 72.9833 63.4765C72.1448 63.0894 71.4836 62.5492 70.9998 61.8558C70.516 61.1623 70.258 60.3883 70.2257 59.5336H72.0157C72.0964 60.356 72.4592 61.0817 73.1043 61.7106C73.7493 62.3234 74.6927 62.6298 75.9345 62.6298C77.0794 62.6298 77.9825 62.3396 78.6437 61.759C79.321 61.1623 79.6597 60.4125 79.6597 59.5094C79.6597 58.7837 79.4742 58.2031 79.1033 57.7677C78.7324 57.3162 78.2728 56.9856 77.7245 56.7759C77.1762 56.5502 76.4183 56.3083 75.4507 56.0503C74.3218 55.7439 73.4268 55.4455 72.7656 55.1552C72.1044 54.865 71.54 54.4134 71.0724 53.8006C70.6047 53.1878 70.3709 52.3573 70.3709 51.3091C70.3709 50.4383 70.5966 49.6642 71.0482 48.9869C71.4997 48.2934 72.1367 47.7532 72.9591 47.3662C73.7816 46.9791 74.725 46.7856 75.7893 46.7856C77.3536 46.7856 78.6115 47.1727 79.5629 47.9467C80.5305 48.7047 81.0869 49.6884 81.232 50.8979H79.3936C79.2807 50.2044 78.9017 49.5916 78.2567 49.0594C77.6116 48.5112 76.7408 48.237 75.6442 48.237C74.6282 48.237 73.7816 48.5112 73.1043 49.0594C72.427 49.5916 72.0883 50.3254 72.0883 51.2607C72.0883 51.9703 72.2738 52.5428 72.6447 52.9782C73.0156 53.4136 73.4752 53.7442 74.0235 53.9699C74.5879 54.1957 75.3459 54.4376 76.2973 54.6956C77.3939 55.002 78.2809 55.3084 78.9582 55.6148C79.6355 55.9051 80.208 56.3567 80.6756 56.9695C81.1433 57.5823 81.3771 58.4047 81.3771 59.4368C81.3771 60.227 81.1675 60.9769 80.7482 61.6864C80.3289 62.396 79.708 62.9685 78.8856 63.4039C78.0632 63.8393 77.0794 64.057 75.9345 64.057ZM86.0945 52.1073V60.3076C86.0945 61.114 86.2477 61.6703 86.5541 61.9767C86.8605 62.2831 87.4007 62.4363 88.1748 62.4363H89.7229V63.8877H87.9087C86.7154 63.8877 85.8284 63.6135 85.2479 63.0652C84.6673 62.5008 84.377 61.5816 84.377 60.3076V52.1073H82.5386V50.6802H84.377V47.3662H86.0945V50.6802H89.7229V52.1073H86.0945ZM103.201 50.6802V63.8877L101.508 63.8877V61.5655C101.121 62.3879 100.524 63.0169 99.718 63.4523C98.9117 63.8877 98.0086 64.1054 97.0087 64.1054C95.4284 64.1054 94.1382 63.6216 93.1384 62.654C92.1386 61.6703 91.6386 60.2512 91.6386 58.3966V50.6802H93.3077V58.2031C93.3077 59.6384 93.6625 60.735 94.3721 61.4929C95.0978 62.2509 96.0815 62.6298 97.3232 62.6298C98.5972 62.6298 99.6132 62.2267 100.371 61.4204C101.129 60.614 101.508 59.4287 101.508 57.8645V50.6802H103.201ZM105.537 57.2597C105.537 55.9051 105.811 54.7198 106.36 53.7039C106.908 52.6718 107.658 51.8816 108.609 51.3333C109.577 50.7689 110.665 50.4866 111.875 50.4866C113.036 50.4866 114.084 50.7689 115.019 51.3333C115.955 51.8977 116.64 52.6315 117.076 53.5345V45.9874H118.769V63.8877H117.076V60.9366C116.672 61.8558 116.011 62.6137 115.092 63.2104C114.173 63.7909 113.092 64.0812 111.851 64.0812C110.641 64.0812 109.553 63.799 108.585 63.2346C107.634 62.6702 106.884 61.8719 106.335 60.8398C105.803 59.8077 105.537 58.6144 105.537 57.2597ZM117.076 57.2839C117.076 56.2196 116.858 55.2842 116.422 54.4779C115.987 53.6716 115.39 53.0507 114.632 52.6153C113.891 52.1799 113.068 51.9622 112.165 51.9622C111.23 51.9622 110.391 52.1718 109.649 52.5911C108.908 53.0104 108.319 53.6232 107.883 54.4295C107.464 55.2197 107.255 56.1631 107.255 57.2597C107.255 58.3402 107.464 59.2917 107.883 60.1141C108.319 60.9204 108.908 61.5413 109.649 61.9767C110.391 62.396 111.23 62.6056 112.165 62.6056C113.068 62.6056 113.891 62.3879 114.632 61.9525C115.39 61.5171 115.987 60.8962 116.422 60.0899C116.858 59.2836 117.076 58.3483 117.076 57.2839ZM122.725 48.1886C122.386 48.1886 122.096 48.0677 121.854 47.8258C121.612 47.5839 121.491 47.2855 121.491 46.9308C121.491 46.576 121.612 46.2857 121.854 46.0599C122.096 45.818 122.386 45.6971 122.725 45.6971C123.064 45.6971 123.354 45.818 123.596 46.0599C123.838 46.2857 123.959 46.576 123.959 46.9308C123.959 47.2855 123.838 47.5839 123.596 47.8258C123.354 48.0677 123.064 48.1886 122.725 48.1886ZM123.572 50.6802V63.8877H121.879V50.6802H123.572ZM132.432 64.0812C131.19 64.0812 130.069 63.8071 129.069 63.2588C128.086 62.6943 127.303 61.9041 126.723 60.8882C126.158 59.8561 125.876 58.6547 125.876 57.2839C125.876 55.9132 126.167 54.7198 126.747 53.7039C127.328 52.6718 128.118 51.8816 129.118 51.3333C130.117 50.7689 131.238 50.4866 132.48 50.4866C133.722 50.4866 134.843 50.7689 135.842 51.3333C136.858 51.8816 137.649 52.6718 138.213 53.7039C138.793 54.7198 139.084 55.9132 139.084 57.2839C139.084 58.6385 138.793 59.8319 138.213 60.864C137.632 61.8961 136.834 62.6943 135.818 63.2588C134.802 63.8071 133.673 64.0812 132.432 64.0812ZM132.432 62.6056C133.302 62.6056 134.109 62.4121 134.851 62.0251C135.592 61.6219 136.189 61.0253 136.641 60.2351C137.108 59.4287 137.342 58.445 137.342 57.2839C137.342 56.1228 137.116 55.1472 136.665 54.357C136.213 53.5507 135.617 52.954 134.875 52.5669C134.133 52.1638 133.327 51.9622 132.456 51.9622C131.585 51.9622 130.779 52.1638 130.037 52.5669C129.295 52.954 128.698 53.5507 128.247 54.357C127.811 55.1472 127.594 56.1228 127.594 57.2839C127.594 58.445 127.811 59.4287 128.247 60.2351C128.698 61.0253 129.287 61.6219 130.013 62.0251C130.754 62.4121 131.561 62.6056 132.432 62.6056Z" fill="#252436"/>
</svg>
