<svg width="156" height="84" viewBox="0 0 156 84" fill="none" xmlns="http://www.w3.org/2000/svg">
<path d="M153.001 35.8985C153.001 34.3074 152.521 32.7534 151.623 31.4401C150.724 30.1267 149.451 29.1152 147.968 28.538C146.485 27.9608 144.863 27.8449 143.313 28.2054C141.763 28.566 140.359 29.3861 139.283 30.5585H129.307V51.6147H150.371V41.7741C151.198 41.0346 151.859 40.1291 152.312 39.1167C152.766 38.1042 153 37.0077 153.001 35.8985ZM148.948 35.8985C148.95 36.6608 148.725 37.4066 148.303 38.0413C147.88 38.676 147.279 39.1711 146.575 39.4639C145.871 39.7568 145.096 39.8343 144.348 39.6865C143.6 39.5388 142.913 39.1724 142.373 38.6338C141.833 38.0953 141.466 37.4088 141.316 36.6611C141.167 35.9135 141.243 35.1383 141.534 34.4338C141.826 33.7293 142.32 33.127 142.953 32.7033C143.587 32.2795 144.332 32.0534 145.095 32.0533C146.115 32.0533 147.094 32.4582 147.817 33.1791C148.539 33.8999 148.946 34.8779 148.948 35.8985ZM146.318 47.5617H133.36V34.6114H137.309C137.232 35.0363 137.192 35.4669 137.189 35.8985C137.191 37.9946 138.025 40.0043 139.507 41.4866C140.989 42.9688 142.999 43.8024 145.095 43.8045C145.505 43.8024 145.914 43.7676 146.318 43.7006V47.5617Z" fill="#252436"/>
<path d="M15.7648 49.2264H9.06266L7.98827 52.3984H3.40929L9.90683 34.4407H14.9718L21.4694 52.3984H16.8392L15.7648 49.2264ZM14.6393 45.8497L12.4138 39.2755L10.2138 45.8497H14.6393ZM27.0218 40.5033C27.5334 39.7189 28.173 39.1049 28.9404 38.6615C29.7078 38.2011 30.5605 37.9708 31.4985 37.9708L31.4985 42.601L30.2962 42.601C29.2047 42.601 28.3861 42.8397 27.8404 43.3172C27.2947 43.7777 27.0218 44.5963 27.0218 45.773V52.3984H22.6475L22.6475 38.1243H27.0218V40.5033ZM40.7456 48.6892V52.3984H38.52C36.934 52.3984 35.6976 52.0147 34.8108 51.2473C33.924 50.4628 33.4806 49.1923 33.4806 47.4358V41.7568H31.7411L31.7411 38.1243H33.4806V34.6453H37.8549V38.1243H40.72V41.7568H37.8549V47.4869C37.8549 47.9133 37.9572 48.2202 38.1619 48.4078C38.3665 48.5954 38.7076 48.6892 39.1851 48.6892H40.7456ZM44.5827 36.6406C43.8153 36.6406 43.1843 36.4189 42.6897 35.9755C42.2122 35.5151 41.9734 34.9523 41.9734 34.2872C41.9734 33.605 42.2122 33.0423 42.6897 32.5989C43.1843 32.1384 43.8153 31.9082 44.5827 31.9082C45.3331 31.9082 45.947 32.1384 46.4245 32.5989C46.9191 33.0423 47.1664 33.605 47.1664 34.2872C47.1664 34.9523 46.9191 35.5151 46.4245 35.9755C45.947 36.4189 45.3331 36.6406 44.5827 36.6406ZM46.7571 38.1243V52.3984H42.3827V38.1243H46.7571ZM56.2903 41.7568H53.9369V52.3984H49.5626V41.7568H47.9765V38.1243H49.5626V37.715C49.5626 35.9585 50.0656 34.6283 51.0718 33.7244C52.078 32.8035 53.5532 32.343 55.4973 32.343C55.8213 32.343 56.0601 32.3516 56.2136 32.3686V36.0778C55.3779 36.0267 54.7896 36.1461 54.4485 36.436C54.1074 36.7259 53.9369 37.246 53.9369 37.9964V38.1243H56.2903V41.7568ZM59.7463 36.6406C58.9789 36.6406 58.3479 36.4189 57.8534 35.9755C57.3758 35.5151 57.1371 34.9523 57.1371 34.2872C57.1371 33.605 57.3758 33.0423 57.8534 32.5989C58.3479 32.1384 58.9789 31.9082 59.7463 31.9082C60.4967 31.9082 61.1107 32.1384 61.5882 32.5989C62.0827 33.0423 62.33 33.605 62.33 34.2872C62.33 34.9523 62.0827 35.5151 61.5882 35.9755C61.1107 36.4189 60.4967 36.6406 59.7463 36.6406ZM61.9207 38.1243V52.3984L57.5464 52.3984V38.1243H61.9207ZM63.4216 45.2614C63.4216 43.7777 63.72 42.4816 64.3169 41.3731C64.9309 40.2646 65.775 39.4119 66.8494 38.815C67.9409 38.2181 69.1858 37.9197 70.5842 37.9197C72.3749 37.9197 73.8671 38.3887 75.0609 39.3266C76.2717 40.2646 77.0647 41.5863 77.4399 43.2917H72.7842C72.3919 42.2002 71.633 41.6545 70.5075 41.6545C69.706 41.6545 69.0664 41.97 68.5889 42.601C68.1114 43.2149 67.8727 44.1017 67.8727 45.2614C67.8727 46.421 68.1114 47.3164 68.5889 47.9474C69.0664 48.5613 69.706 48.8683 70.5075 48.8683C71.633 48.8683 72.3919 48.3226 72.7842 47.2311H77.4399C77.0647 48.9024 76.2717 50.2155 75.0609 51.1706C73.8501 52.1256 72.3578 52.6031 70.5842 52.6031C69.1858 52.6031 67.9409 52.3046 66.8494 51.7078C65.775 51.1109 64.9309 50.2582 64.3169 49.1497C63.72 48.0412 63.4216 46.7451 63.4216 45.2614ZM81.1803 36.6406C80.4129 36.6406 79.7819 36.4189 79.2873 35.9755C78.8098 35.5151 78.5711 34.9523 78.5711 34.2872C78.5711 33.605 78.8098 33.0423 79.2873 32.5989C79.7819 32.1384 80.4129 31.9082 81.1803 31.9082C81.9307 31.9082 82.5446 32.1384 83.0221 32.5989C83.5167 33.0423 83.764 33.605 83.764 34.2872C83.764 34.9523 83.5167 35.5151 83.0221 35.9755C82.5446 36.4189 81.9307 36.6406 81.1803 36.6406ZM83.3547 38.1243V52.3984H78.9803V38.1243H83.3547ZM84.8555 45.2358C84.8555 43.7692 85.1284 42.4816 85.6741 41.3731C86.2369 40.2646 86.9958 39.4119 87.9508 38.815C88.9058 38.2181 89.9717 37.9197 91.1484 37.9197C92.1546 37.9197 93.0329 38.1243 93.7833 38.5336C94.5507 38.9429 95.1391 39.4801 95.5483 40.1452V38.1243H99.9227V52.3984H95.5483V50.3775C95.122 51.0427 94.5251 51.5798 93.7577 51.9891C93.0073 52.3984 92.129 52.6031 91.1229 52.6031C89.9632 52.6031 88.9058 52.3046 87.9508 51.7078C86.9958 51.0938 86.2369 50.2326 85.6741 49.1241C85.1284 47.9985 84.8555 46.7024 84.8555 45.2358ZM95.5483 45.2614C95.5483 44.1699 95.2414 43.3087 94.6274 42.6777C94.0305 42.0467 93.2972 41.7312 92.4275 41.7312C91.5577 41.7312 90.8159 42.0467 90.2019 42.6777C89.6051 43.2917 89.3066 44.1443 89.3066 45.2358C89.3066 46.3272 89.6051 47.197 90.2019 47.845C90.8159 48.476 91.5577 48.7915 92.4275 48.7915C93.2972 48.7915 94.0305 48.476 94.6274 47.845C95.2414 47.2141 95.5483 46.3528 95.5483 45.2614ZM106.662 33.4686V52.3984H102.288V33.4686H106.662ZM114.84 52.6031C113.595 52.6031 112.486 52.3899 111.514 51.9636C110.542 51.5372 109.775 50.9574 109.212 50.2241C108.649 49.4737 108.334 48.6381 108.265 47.7171H112.589C112.64 48.2117 112.87 48.6125 113.279 48.9194C113.689 49.2264 114.192 49.3799 114.789 49.3799C115.334 49.3799 115.752 49.2776 116.042 49.0729C116.349 48.8512 116.502 48.5698 116.502 48.2288C116.502 47.8195 116.289 47.521 115.863 47.3334C115.437 47.1288 114.746 46.9071 113.791 46.6683C112.768 46.4296 111.915 46.1823 111.233 45.9265C110.551 45.6536 109.962 45.2358 109.468 44.673C108.973 44.0932 108.726 43.3172 108.726 42.3452C108.726 41.5266 108.948 40.7847 109.391 40.1196C109.851 39.4375 110.517 38.9003 111.386 38.508C112.273 38.1158 113.322 37.9197 114.533 37.9197C116.323 37.9197 117.73 38.3631 118.754 39.2499C119.794 40.1367 120.391 41.3134 120.544 42.78L116.502 42.78C116.434 42.2855 116.213 41.8932 115.837 41.6033C115.479 41.3134 115.002 41.1684 114.405 41.1684C113.893 41.1684 113.501 41.2708 113.228 41.4754C112.955 41.663 112.819 41.9273 112.819 42.2684C112.819 42.6777 113.032 42.9847 113.458 43.1893C113.902 43.394 114.584 43.5986 115.505 43.8033C116.562 44.0761 117.423 44.349 118.088 44.6219C118.754 44.8777 119.333 45.304 119.828 45.9009C120.34 46.4807 120.604 47.2652 120.621 48.2543C120.621 49.09 120.382 49.8404 119.905 50.5055C119.444 51.1535 118.771 51.6651 117.884 52.0403C117.014 52.4155 115.999 52.6031 114.84 52.6031Z" fill="#252436"/>
</svg>
