<svg width="156" height="84" viewBox="0 0 156 84" fill="none" xmlns="http://www.w3.org/2000/svg">
<path d="M16.3935 55.8561C12.565 59.6846 6.08114 59.6693 4.27036 54.5669C3.91584 53.5679 3.63238 52.5407 3.4239 51.4927C2.57268 47.2132 3.00956 42.7775 4.67929 38.7464C6.34903 34.7154 9.17662 31.2699 12.8045 28.8459C16.4324 26.4218 20.6977 25.1279 25.0609 25.1279C29.4241 25.1279 33.6894 26.4218 37.3172 28.8459C40.9451 31.2699 43.7727 34.7154 45.4424 38.7465C47.1122 42.7775 47.549 47.2132 46.6978 51.4927C46.4894 52.5407 46.2059 53.5679 45.8513 54.5669C44.0405 59.6693 37.5567 59.6846 33.7282 55.8561L27.8185 49.9464C27.2538 49.3818 27.3122 48.4506 27.4679 47.6675C27.5626 47.1915 27.514 46.6981 27.3282 46.2496C27.1424 45.8011 26.8279 45.4178 26.4244 45.1482C26.0208 44.8786 25.5463 44.7346 25.0609 44.7346C24.5755 44.7346 24.101 44.8786 23.6974 45.1482C23.2937 45.4178 22.9792 45.8011 22.7935 46.2496C22.6077 46.6981 22.5591 47.1915 22.6538 47.6675C22.8096 48.4506 22.8678 49.3818 22.3032 49.9464L16.3935 55.8561Z" fill="#252436"/>
<path d="M120.416 21.4975V29H118.589V25.9114H115.746V29H113.918V21.4975H115.746V24.4365H118.589V21.4975H120.416ZM124.116 29.0855C123.532 29.0855 123.005 28.9608 122.535 28.7114C122.071 28.4621 121.705 28.1058 121.434 27.6427C121.17 27.1796 121.038 26.6381 121.038 26.0182C121.038 25.4055 121.174 24.8676 121.444 24.4044C121.715 23.9342 122.086 23.5744 122.556 23.325C123.026 23.0756 123.553 22.951 124.138 22.951C124.722 22.951 125.249 23.0756 125.719 23.325C126.19 23.5744 126.56 23.9342 126.831 24.4044C127.102 24.8676 127.237 25.4055 127.237 26.0182C127.237 26.631 127.098 27.1725 126.82 27.6427C126.549 28.1058 126.175 28.4621 125.698 28.7114C125.228 28.9608 124.701 29.0855 124.116 29.0855ZM124.116 27.5038C124.465 27.5038 124.761 27.3755 125.003 27.119C125.253 26.8625 125.377 26.4956 125.377 26.0182C125.377 25.5409 125.256 25.1739 125.014 24.9174C124.779 24.6609 124.487 24.5327 124.138 24.5327C123.781 24.5327 123.486 24.6609 123.251 24.9174C123.015 25.1668 122.898 25.5337 122.898 26.0182C122.898 26.4956 123.012 26.8625 123.24 27.119C123.475 27.3755 123.767 27.5038 124.116 27.5038ZM129.7 24.0304C129.914 23.7026 130.181 23.4461 130.502 23.2609C130.822 23.0685 131.179 22.9723 131.57 22.9723V24.9067H131.068C130.612 24.9067 130.27 25.0065 130.042 25.206C129.814 25.3984 129.7 25.7404 129.7 26.232V29H127.873V23.0365H129.7V24.0304ZM133.029 22.4166C132.708 22.4166 132.445 22.324 132.238 22.1387C132.039 21.9463 131.939 21.7112 131.939 21.4334C131.939 21.1484 132.039 20.9132 132.238 20.728C132.445 20.5356 132.708 20.4394 133.029 20.4394C133.343 20.4394 133.599 20.5356 133.799 20.728C134.005 20.9132 134.108 21.1484 134.108 21.4334C134.108 21.7112 134.005 21.9463 133.799 22.1387C133.599 22.324 133.343 22.4166 133.029 22.4166ZM133.937 23.0365V29H132.11V23.0365H133.937ZM136.638 27.4931H139.224V29H134.597V27.5465L137.076 24.5434H134.618V23.0365H139.171V24.4899L136.638 27.4931ZM142.61 29.0855C142.026 29.0855 141.499 28.9608 141.029 28.7114C140.566 28.4621 140.199 28.1058 139.928 27.6427C139.664 27.1796 139.532 26.6381 139.532 26.0182C139.532 25.4055 139.668 24.8676 139.939 24.4044C140.209 23.9342 140.58 23.5744 141.05 23.325C141.52 23.0756 142.048 22.951 142.632 22.951C143.216 22.951 143.743 23.0756 144.214 23.325C144.684 23.5744 145.054 23.9342 145.325 24.4044C145.596 24.8676 145.731 25.4055 145.731 26.0182C145.731 26.631 145.592 27.1725 145.314 27.6427C145.044 28.1058 144.67 28.4621 144.192 28.7114C143.722 28.9608 143.195 29.0855 142.61 29.0855ZM142.61 27.5038C142.96 27.5038 143.255 27.3755 143.497 27.119C143.747 26.8625 143.872 26.4956 143.872 26.0182C143.872 25.5409 143.75 25.1739 143.508 24.9174C143.273 24.6609 142.981 24.5327 142.632 24.5327C142.276 24.5327 141.98 24.6609 141.745 24.9174C141.51 25.1668 141.392 25.5337 141.392 26.0182C141.392 26.4956 141.506 26.8625 141.734 27.119C141.969 27.3755 142.261 27.5038 142.61 27.5038ZM150 22.9723C150.699 22.9723 151.254 23.2003 151.668 23.6563C152.088 24.1052 152.298 24.7251 152.298 25.5159V29H150.481V25.7617C150.481 25.3627 150.378 25.0528 150.171 24.8319C149.965 24.6111 149.687 24.5006 149.338 24.5006C148.989 24.5006 148.711 24.6111 148.504 24.8319C148.298 25.0528 148.194 25.3627 148.194 25.7617V29H146.367V23.0365H148.194V23.8273C148.379 23.5637 148.629 23.3571 148.942 23.2075C149.256 23.0507 149.609 22.9723 150 22.9723Z" fill="#252436"/>
<path d="M90.5789 57.5645L84.8353 57.5645L71.8302 37.9132V57.5645H66.0866V28.8875H71.8302L84.8353 48.5798V28.8875H90.5789V57.5645ZM116.101 45.708C116.101 46.5286 116.046 47.267 115.937 47.9234H99.3216C99.4583 49.5645 100.033 50.8499 101.045 51.7798C102.057 52.7098 103.301 53.1747 104.778 53.1747C106.911 53.1747 108.429 52.2585 109.332 50.426H115.527C114.87 52.614 113.612 54.4192 111.752 55.8414C109.893 57.2362 107.609 57.9337 104.901 57.9337C102.713 57.9337 100.744 57.4551 98.9934 56.4978C97.2703 55.5132 95.9164 54.132 94.9318 52.3542C93.9746 50.5764 93.4959 48.5251 93.4959 46.2003C93.4959 43.8482 93.9746 41.7833 94.9318 40.0055C95.8891 38.2277 97.2293 36.8602 98.9523 35.9029C100.675 34.9456 102.658 34.467 104.901 34.467C107.062 34.467 108.99 34.932 110.686 35.8619C112.409 36.7918 113.735 38.1183 114.665 39.8414C115.622 41.5371 116.101 43.4927 116.101 45.708ZM110.152 44.067C110.125 42.5901 109.592 41.414 108.552 40.5388C107.513 39.6362 106.241 39.185 104.737 39.185C103.315 39.185 102.111 39.6226 101.127 40.4978C100.169 41.3456 99.5814 42.5354 99.3626 44.067H110.152ZM150.519 34.8362L143.873 57.5645H137.678L133.534 41.6875L129.391 57.5645H123.155L116.468 34.8362H122.293L126.314 52.1491L130.663 34.8362H136.734L141.001 52.108L145.022 34.8362H150.519Z" fill="#252436"/>
</svg>
