<svg width="301" height="69" viewBox="0 0 301 69" fill="none" xmlns="http://www.w3.org/2000/svg">
<path d="M0 23.6062L18.5 34.3056L31.1978 26.9619C33.7545 25.4832 33.7246 21.7821 31.1442 20.345L0 3V23.6062Z" fill="#7B01F7"/>
<path d="M6.02418 41.6813C3.51442 43.1651 3.53796 46.8045 6.0667 48.2557L36.9869 66L37 45.005L18.5 34.3056L6.02418 41.6813Z" fill="#7B01F7"/>
<path d="M77.5957 28.8841V16.8335H69.7005L69.7005 51H77.5957L77.5957 47.3987C79.027 49.661 81.7511 51.3694 85.5371 51.3694C91.8626 51.3694 96.8952 46.1982 96.8952 38.0721C96.8952 29.946 91.9087 24.8672 85.5371 24.8672C81.8435 24.8672 79.027 26.5755 77.5957 28.8841ZM88.8615 38.0721C88.8615 42.1813 86.1835 44.4899 83.1824 44.4899C80.2275 44.4899 77.5496 42.2275 77.5496 38.1183C77.5496 34.0091 80.2275 31.7467 83.1824 31.7467C86.1835 31.7467 88.8615 33.9629 88.8615 38.0721ZM111.626 31.1926C114.258 31.1926 116.474 32.8086 116.474 35.6251H106.593C107.055 32.7625 109.04 31.1926 111.626 31.1926ZM123.953 42.4584H115.55C114.904 43.8435 113.657 44.9516 111.441 44.9516C108.902 44.9516 106.824 43.3818 106.547 40.0113H124.415C124.508 39.2264 124.554 38.4415 124.554 37.7028C124.554 29.8537 119.244 24.8672 111.718 24.8672C104.054 24.8672 98.6979 29.946 98.6979 38.1183C98.6979 46.2906 104.146 51.3694 111.718 51.3694C118.136 51.3694 122.707 47.491 123.953 42.4584ZM126.379 38.0721C126.379 46.1982 131.412 51.3694 137.691 51.3694C141.524 51.3694 144.248 49.6149 145.679 47.3525V51H153.574V25.2366H145.679V28.8841C144.294 26.6217 141.57 24.8672 137.738 24.8672C131.412 24.8672 126.379 29.946 126.379 38.0721ZM145.679 38.1183C145.679 42.2275 143.047 44.4899 140.046 44.4899C137.091 44.4899 134.413 42.1813 134.413 38.0721C134.413 33.9629 137.091 31.7467 140.046 31.7467C143.047 31.7467 145.679 34.0091 145.679 38.1183ZM156.947 38.0721C156.947 46.1982 161.979 51.3694 168.305 51.3694C172.091 51.3694 174.815 49.5687 176.246 47.3063V50.9538C176.246 55.2939 173.891 56.8637 170.89 56.8637C168.166 56.8637 166.227 55.6171 165.719 53.6779H157.916C158.609 59.8187 163.595 63.697 171.26 63.697C180.171 63.697 184.141 57.8333 184.141 50.9538V25.2366H176.246V28.8841C174.861 26.5755 172.091 24.8672 168.305 24.8672C161.979 24.8672 156.947 29.946 156.947 38.0721ZM176.246 38.1183C176.246 42.2275 173.614 44.4899 170.613 44.4899C167.658 44.4899 164.98 42.1813 164.98 38.0721C164.98 33.9629 167.658 31.7467 170.613 31.7467C173.614 31.7467 176.246 34.0091 176.246 38.1183ZM200.442 31.1926C203.074 31.1926 205.29 32.8086 205.29 35.6251H195.409C195.871 32.7625 197.856 31.1926 200.442 31.1926ZM212.77 42.4584H204.366C203.72 43.8435 202.473 44.9516 200.257 44.9516C197.718 44.9516 195.64 43.3818 195.363 40.0113H213.231C213.324 39.2264 213.37 38.4415 213.37 37.7028C213.37 29.8537 208.06 24.8672 200.534 24.8672C192.87 24.8672 187.514 29.946 187.514 38.1183C187.514 46.2906 192.962 51.3694 200.534 51.3694C206.952 51.3694 211.523 47.491 212.77 42.4584ZM234.541 51H242.39V35.9483C242.39 29.0226 238.42 24.9596 232.463 24.9596C229.001 24.9596 226.23 26.4832 224.661 28.6532V25.2366H216.765V51L224.661 51V37.0102C224.661 33.5012 226.6 31.562 229.601 31.562C232.602 31.562 234.541 33.5012 234.541 37.0102V51ZM245.537 38.1183C245.537 46.2906 250.893 51.3694 258.465 51.3694C264.929 51.3694 269.5 47.6295 270.839 41.6735L262.436 41.6735C261.743 43.5665 260.497 44.6284 258.327 44.6284C255.51 44.6284 253.571 42.4122 253.571 38.1183C253.571 33.8244 255.51 31.6082 258.327 31.6082C260.497 31.6082 261.79 32.7625 262.436 34.5631L270.839 34.5631C269.5 28.4224 264.929 24.8672 258.465 24.8672C250.893 24.8672 245.537 29.9922 245.537 38.1183ZM286.159 41.3503L280.203 25.2366L271.384 25.2366L281.865 50.1228L275.955 63.2353H284.45L300.61 25.2366L292.069 25.2366L286.159 41.3503Z" fill="#7B01F7"/>
</svg>
